<svg xmlns="http://www.w3.org/2000/svg" width="52.397" height="52.382" viewBox="0 0 52.397 52.382">
  <g id="Group_13460" data-name="Group 13460" transform="translate(18811.951 5570.132)">
    <path id="Path_373" data-name="Path 373" d="M820.987,232.717a7.774,7.774,0,0,1-7.913-8.648c.032-.463.338-.586.763-.607a7.848,7.848,0,0,1,7.1,3.4v-3.236c-.578-.079-1.186-.125-1.777-.249a7.6,7.6,0,0,1-6.086-7.17c-.016-.367-.009-.737-.011-1.1,0-.457.211-.636.682-.651a8,8,0,0,1,7.2,3.442v-3.252c-.673-.1-1.374-.145-2.046-.311a7.582,7.582,0,0,1-5.825-7.169c-.014-.368-.016-.737-.008-1.107.013-.6.2-.774.787-.8a7.686,7.686,0,0,1,6.843,3.193.226.226,0,0,0,.187.1c0-.775.013-1.553-.012-2.327,0-.124-.168-.254-.275-.364a7.714,7.714,0,0,1,.519-11.5,1.026,1.026,0,0,1,.7-.166c.089.008.151.322.228.495a1.947,1.947,0,0,0,.239.5,7.553,7.553,0,0,1-.308,10.66,1.308,1.308,0,0,0-.322.768c-.047.638-.015,1.281-.015,2.061.19-.225.288-.334.38-.45a7.824,7.824,0,0,1,7.011-2.957.592.592,0,0,1,.6.6,7.693,7.693,0,0,1-6.8,8.564l-1.081.107v3.26c.214-.263.378-.477.553-.679a7.822,7.822,0,0,1,6.814-2.705.592.592,0,0,1,.6.609,7.7,7.7,0,0,1-5.831,8.381c-.66.158-1.344.208-2.045.313v3.053c.582-.547,1.151-1.161,1.8-1.673a7.844,7.844,0,0,1,5.488-1.549.668.668,0,0,1,.689.706,7.775,7.775,0,0,1-6.5,8.439c-.445.081-.9.083-1.386.125v3.437a52.908,52.908,0,0,1,16.308-2.907V227.7c-.566-.074-1.138-.119-1.7-.226a7.665,7.665,0,0,1-6.183-7.373c0-.071,0-.141,0-.211-.006-1.5.007-1.5,1.479-1.493a7.764,7.764,0,0,1,6.478,3.371v-3.13a24.409,24.409,0,0,1-2.876-.658,7.556,7.556,0,0,1-4.983-7.111c0-.263,0-.526,0-.789.006-.626.193-.8.81-.828a7.861,7.861,0,0,1,7.148,3.383v-3.215c-.7-.105-1.413-.151-2.1-.323a7.614,7.614,0,0,1-5.77-7.167c-.013-.352-.017-.7-.007-1.053.016-.578.219-.748.814-.777a7.788,7.788,0,0,1,6.963,3.174,2.42,2.42,0,0,0,.223.2c0-.857.021-1.62-.016-2.382-.008-.173-.193-.36-.336-.5a7.477,7.477,0,0,1-2.275-4.618,7.58,7.58,0,0,1,1.9-5.926,1.471,1.471,0,0,0,.21-.626,4.007,4.007,0,0,0,.047-.551c.232.034.53-.013.681.114a10.455,10.455,0,0,1,1.221,1.233,7.5,7.5,0,0,1-.316,9.978,1.838,1.838,0,0,0-.61,1.567c.043.476.009.96.009,1.564.364-.422.62-.749.908-1.044a7.948,7.948,0,0,1,6.348-2.361.723.723,0,0,1,.75.774,7.792,7.792,0,0,1-6.709,8.424c-.379.056-.768.044-1.194.068v3.266c.138-.161.248-.281.349-.407a7.872,7.872,0,0,1,6.908-2.973.668.668,0,0,1,.705.688,7.762,7.762,0,0,1-6.816,8.52,8.733,8.733,0,0,1-1.076.006v3.309c.106-.113.2-.2.272-.29a7.866,7.866,0,0,1,7.012-3.083.648.648,0,0,1,.686.647,7.749,7.749,0,0,1-6.1,8.434c-.56.123-1.143.148-1.8.229v5.627a51.341,51.341,0,0,1,16.355,3.016v-3.393c-.7-.107-1.408-.156-2.08-.328a7.669,7.669,0,0,1-5.816-7.414c-.026-1.565-.009-1.578,1.559-1.574a7.746,7.746,0,0,1,6.393,3.34v-3.171a20.743,20.743,0,0,1-2.086-.334,7.736,7.736,0,0,1-5.778-8.125c.038-.5.331-.694.8-.712a7.85,7.85,0,0,1,6.977,3.159c.042.054.089.105.184.216v-3.2c-.7-.106-1.4-.157-2.076-.325a7.6,7.6,0,0,1-5.785-7.416c0-.087,0-.175,0-.263,0-1.384,0-1.371,1.359-1.384a7.624,7.624,0,0,1,6.4,3.139c.043.055.088.109.134.16.008.01.028.008.107.024,0-.773.022-1.536-.016-2.295-.009-.169-.209-.345-.35-.491a7.685,7.685,0,0,1-.692-10.088,15.454,15.454,0,0,1,1.294-1.381.622.622,0,0,1,.937,0,7.6,7.6,0,0,1,.657,11.386,1.317,1.317,0,0,0-.445,1.105c.034.57.008,1.143.008,1.833.161-.174.244-.25.313-.339a7.82,7.82,0,0,1,7.073-3.044.593.593,0,0,1,.608.6,7.7,7.7,0,0,1-6.741,8.564c-.4.043-.8.079-1.223.121v3.238c.283-.334.495-.6.725-.854a7.828,7.828,0,0,1,6.635-2.519.593.593,0,0,1,.6.6,7.693,7.693,0,0,1-6.387,8.348c-.481.08-.972.1-1.493.156v3.258c.132-.16.234-.282.333-.406a7.863,7.863,0,0,1,7-2.986c.415.024.607.274.636.691a7.736,7.736,0,0,1-7.723,8.559.969.969,0,0,0-.146.023c-.012.121-.037.255-.038.389,0,1.051.012,2.1-.01,3.158-.006.32.121.434.4.557q3.522,1.573,7.026,3.184c.37.167.635.43.432.867s-.6.428-1,.337a1.525,1.525,0,0,1-.329-.163c-.609-.306-1.217-.618-1.83-.919a55.181,55.181,0,0,0-15.106-4.98,47.392,47.392,0,0,0-12.213-.491,53.208,53.208,0,0,0-20.514,6.385c-.061.033-.124.065-.186.1-.528.275-.848.234-1.045-.133s-.049-.694.473-.938c2.248-1.059,4.494-2.122,6.764-3.131a.839.839,0,0,0,.625-.946c-.046-1.048-.014-2.1-.014-3.206" transform="translate(-19625 -5759)" fill="#148100"/>
  </g>
</svg>
