<svg xmlns="http://www.w3.org/2000/svg" width="50.494" height="46.279" viewBox="0 0 50.494 46.279">
  <g id="Group_13456" data-name="Group 13456" transform="translate(19218.039 5661.174)">
    <path id="Path_441" data-name="Path 441" d="M425.837,111.007H412.672V97.826h4.162V99.5c0,1.192,0,2.384,0,3.577,0,.422.022.835.487,1s.744-.161,1.005-.483c.3-.365.6-.725.944-1.141.34.408.66.771.956,1.152.261.337.541.636,1.007.472.483-.169.456-.6.454-1.013-.005-1.542,0-3.085,0-4.628v-.608h4.154Zm-9.8-1.214c.438,0,.877.014,1.314,0a.706.706,0,0,0,.731-.729.678.678,0,0,0-.741-.658c-.893,0-1.787-.007-2.681,0a.7.7,0,0,0-.764.689.739.739,0,0,0,.774.695c.455.014.911,0,1.367,0" transform="translate(-19625 -5759)" fill="#60a4ff"/>
    <path id="Path_442" data-name="Path 442" d="M440.909,121.585v1.608c-.125.017-.225.038-.326.042-1.033.039-1.018.044-1.353,1.054a8.744,8.744,0,0,1-.57,1.293c-.348.665-.347.8.185,1.325a3.749,3.749,0,0,0,.459.329l-1.274,1.2c-.155-.148-.342-.321-.523-.5a.783.783,0,0,0-1-.127,14.543,14.543,0,0,1-1.829.77.836.836,0,0,0-.7.945c.013.205,0,.411,0,.647h-1.6c-.028-.05-.062-.082-.058-.108.15-.987-.291-1.488-1.259-1.656a3.889,3.889,0,0,1-1.1-.485c-.687-.367-.812-.359-1.372.19-.111.11-.227.215-.34.321l-1.125-1.219c.947-.536.8-1.293.231-2.14a3.825,3.825,0,0,1-.391-1.025c-.221-.735-.3-.8-1.057-.813-.171,0-.342-.016-.541-.026v-1.576c.051-.027.079-.055.109-.057,1.21-.081,1.2-.084,1.61-1.238a8.072,8.072,0,0,1,.493-1.1c.392-.729.388-.828-.185-1.413-.109-.111-.212-.228-.312-.335l1.31-1.255a3.677,3.677,0,0,0,.332.551.782.782,0,0,0,1.038.176c.634-.288,1.279-.556,1.932-.8a.785.785,0,0,0,.607-.809c0-.227,0-.454,0-.733h1.606c.021.038.05.066.052.1.079,1.208.082,1.2,1.266,1.63a7.987,7.987,0,0,1,1.048.48c.7.378.871.364,1.423-.181.111-.11.227-.216.376-.357l1.086,1.215c.01-.058.016-.008,0,.006a1.347,1.347,0,0,0-.257,2.15,3.634,3.634,0,0,1,.408,1.072c.215.7.344.813,1.063.824.171,0,.342.015.537.025m-7.8,5.493a4.7,4.7,0,1,0-4.687-4.682,4.7,4.7,0,0,0,4.687,4.682" transform="translate(-19625 -5759)" fill="#60a4ff"/>
    <path id="Path_443" data-name="Path 443" d="M442.936,143.237c0-.427.006-.794,0-1.161-.011-.513-.269-.813-.691-.819s-.683.276-.7.8c-.01.367-.014.735-.023,1.1,0,.014-.022.027-.059.07h-1.338a36.984,36.984,0,0,1,.206-4.279,2.741,2.741,0,0,1,2.946-2.311c1.736,0,3.475.058,5.208-.017a3.03,3.03,0,0,1,3.243,2.944c.093,1.2.018,2.413.018,3.656H450.4c0-.343.005-.7,0-1.061-.009-.586-.272-.91-.721-.9s-.67.293-.681.874c-.007.363,0,.727,0,1.106Z" transform="translate(-19625 -5759)" fill="#60a4ff"/>
    <path id="Path_444" data-name="Path 444" d="M457.408,115.439H456.1v-.582q0-3.5,0-7c0-.766-.194-.969-.966-.97q-3.814-.009-7.629,0c-.8,0-1,.21-1,1q0,3.472,0,6.945v.6h-1.33c-.009-.171-.026-.34-.026-.508,0-3.263,0-6.525-.007-9.787a.646.646,0,0,1,.358-.667q2.742-1.553,5.461-3.15a.611.611,0,0,1,.713.007c1.813,1.062,3.639,2.1,5.45,3.166a.673.673,0,0,1,.318.458c.017,3.437.012,6.874.009,10.312a.918.918,0,0,1-.044.178m-9.035-9.691h1.346v-1.334h-1.346Zm4.564,0h1.323v-1.338h-1.323Zm-2.3.008h1.318v-1.345h-1.318Z" transform="translate(-19625 -5759)" fill="#60a4ff"/>
    <rect id="Rectangle_301" data-name="Rectangle 301" width="6.754" height="7.078" transform="translate(-19177.074 -5650.66)" fill="#60a4ff"/>
    <rect id="Rectangle_302" data-name="Rectangle 302" width="9.709" height="4.252" transform="translate(-19217.186 -5630.331)" fill="#60a4ff"/>
    <path id="Path_445" data-name="Path 445" d="M418.984,129.053c.9,0,1.756-.048,2.6.026a1.332,1.332,0,0,1,.822.561c.605.878,1.162,1.791,1.7,2.711a1.8,1.8,0,0,1,.221.844c.026,1.05.023,2.1,0,3.151a.708.708,0,0,1-.255.546.549.549,0,0,1-.716-.227,2.227,2.227,0,0,0-3.7,0c-.129.163-.382.229-.676.4Z" transform="translate(-19625 -5759)" fill="#60a4ff"/>
    <path id="Path_446" data-name="Path 446" d="M406.961,136.885v-2.513h10.557v2.536c-.164.008-.333.023-.5.023-1.524,0-3.048-.008-4.572.009a.793.793,0,0,1-.733-.366,2.226,2.226,0,0,0-3.437-.15c-.5.561-.5.561-1.313.461" transform="translate(-19625 -5759)" fill="#60a4ff"/>
    <path id="Path_447" data-name="Path 447" d="M427.473,142.215c.133.29.277.564.386.852a.683.683,0,0,1-.366.963.656.656,0,0,1-.922-.354c-.406-.814-.8-1.635-1.163-2.468a.688.688,0,0,1,.362-.97c.787-.382,1.577-.759,2.376-1.116a.716.716,0,1,1,.615,1.289c-.208.116-.427.212-.741.366a16,16,0,0,0,4.379.685c1.152.009,2.305-.115,3.458-.18.14-.008.279-.023.419-.029a.649.649,0,0,1,.747.58.636.636,0,0,1-.565.8c-.9.12-1.807.243-2.715.28a20.123,20.123,0,0,1-5.773-.649c-.118-.03-.237-.057-.357-.08a.49.49,0,0,0-.14.028" transform="translate(-19625 -5759)" fill="#60a4ff"/>
    <path id="Path_448" data-name="Path 448" d="M438.139,103.9c-1.024-.175-2.042-.4-3.072-.514a18,18,0,0,0-4.921.143.728.728,0,0,1-.943-.587c-.073-.442.2-.751.724-.833a20.867,20.867,0,0,1,8.639.46l.27.067c-.158-.351-.3-.639-.42-.936a.712.712,0,1,1,1.293-.6c.406.813.8,1.635,1.162,2.467a.683.683,0,0,1-.368.965c-.819.395-1.643.778-2.468,1.159a.648.648,0,0,1-.925-.335.662.662,0,0,1,.306-.939c.234-.136.481-.249.722-.372,0-.05,0-.1,0-.15" transform="translate(-19625 -5759)" fill="#60a4ff"/>
    <path id="Path_449" data-name="Path 449" d="M452.906,128.076c.391-.174.674-.31.964-.425a.65.65,0,0,1,.883.344.628.628,0,0,1-.252.91c-.871.446-1.756.867-2.656,1.253a.652.652,0,0,1-.859-.412q-.586-1.2-1.137-2.421a.666.666,0,0,1,.319-.936.691.691,0,0,1,.973.34c.128.224.233.462.348.694l.165.006c.182-1.27.455-2.535.52-3.81.067-1.306-.063-2.622-.125-3.932-.024-.509.169-.82.611-.872s.728.18.8.691a20.4,20.4,0,0,1-.473,8.174c-.025.1-.042.195-.084.4" transform="translate(-19625 -5759)" fill="#60a4ff"/>
    <path id="Path_450" data-name="Path 450" d="M414.67,117.352a26.728,26.728,0,0,0-.464,2.658c-.1,1.306-.089,2.622-.109,3.934-.009.588-.19.862-.648.893s-.735-.216-.778-.786a20.648,20.648,0,0,1,.626-6.973c.026-.1.041-.195.08-.383-.338.153-.6.281-.863.389a.706.706,0,0,1-.992-.3.7.7,0,0,1,.391-.994c.769-.377,1.542-.747,2.322-1.1a.722.722,0,0,1,1.084.386c.376.769.73,1.549,1.093,2.325a.694.694,0,0,1-.3.99.714.714,0,0,1-1-.385c-.116-.213-.218-.432-.326-.649l-.122-.005" transform="translate(-19625 -5759)" fill="#60a4ff"/>
    <path id="Path_451" data-name="Path 451" d="M443.875,131.3a2.056,2.056,0,0,1,2.068-2.064,2.1,2.1,0,0,1,2.124,2.084,2.138,2.138,0,0,1-2.116,2.106,2.092,2.092,0,0,1-2.076-2.126" transform="translate(-19625 -5759)" fill="#60a4ff"/>
    <path id="Path_452" data-name="Path 452" d="M420.249,101.361c-.908-.881-.908-.881-1.97-.023a1.929,1.929,0,0,1-.038-.264c0-1.067,0-2.135,0-3.24h2.01Z" transform="translate(-19625 -5759)" fill="#60a4ff"/>
    <path id="Path_453" data-name="Path 453" d="M409.96,137.078a.9.9,0,0,1,.835.851.868.868,0,0,1-.878.851.85.85,0,0,1-.825-.893.881.881,0,0,1,.868-.809" transform="translate(-19625 -5759)" fill="#60a4ff"/>
    <path id="Path_454" data-name="Path 454" d="M422.381,137.944a.877.877,0,0,1-.854.835.837.837,0,0,1-.843-.882.865.865,0,0,1,.865-.819.9.9,0,0,1,.832.866" transform="translate(-19625 -5759)" fill="#60a4ff"/>
    <path id="Path_455" data-name="Path 455" d="M416.034,109.794c-.456,0-.912.011-1.367,0a.74.74,0,0,1-.774-.695.7.7,0,0,1,.764-.69c.894-.01,1.788,0,2.681,0a.678.678,0,0,1,.741.658.707.707,0,0,1-.731.729c-.437.018-.876,0-1.314,0" transform="translate(-19625 -5759)" fill="#60a4ff"/>
    <path id="Path_456" data-name="Path 456" d="M433.11,127.078a4.7,4.7,0,1,1,4.741-4.677,4.7,4.7,0,0,1-4.741,4.677m3.322-4.637a3.3,3.3,0,1,0-3.469,3.239,3.282,3.282,0,0,0,3.469-3.239" transform="translate(-19625 -5759)" fill="#60a4ff"/>
    <rect id="Rectangle_303" data-name="Rectangle 303" width="1.346" height="1.334" transform="translate(-19176.627 -5654.586)" fill="#60a4ff"/>
    <rect id="Rectangle_304" data-name="Rectangle 304" width="1.323" height="1.338" transform="translate(-19172.063 -5654.587)" fill="#60a4ff"/>
    <rect id="Rectangle_305" data-name="Rectangle 305" width="1.318" height="1.345" transform="translate(-19174.363 -5654.586)" fill="#60a4ff"/>
    <path id="Path_457" data-name="Path 457" d="M436.432,122.441a3.3,3.3,0,0,1-6.6-.085,3.3,3.3,0,1,1,6.6.085" transform="translate(-19625 -5759)" fill="#60a4ff"/>
  </g>
</svg>
