<svg xmlns="http://www.w3.org/2000/svg" width="52.682" height="52.652" viewBox="0 0 52.682 52.652">
  <path id="Path_799" data-name="Path 799" d="M3807.978,25.407a6.447,6.447,0,0,0-4.939,5.513l-.078.631-.676.126a4.514,4.514,0,0,0-3.757,3.766,4.632,4.632,0,0,0,2.278,4.651c1.106.564,1.307.577,8.535.577s7.429-.014,8.535-.577a4.632,4.632,0,0,0,2.278-4.651,4.514,4.514,0,0,0-3.757-3.766l-.676-.126-.078-.631a6.291,6.291,0,0,0-2.079-4.008A6.2,6.2,0,0,0,3807.978,25.407Zm-1.362,25.43v7.442l-.279.279c-.268.269-.335.279-1.817.279h-1.537v-6.05c0-6.049,0-6.05-.255-6.557a1.539,1.539,0,0,0-.762-.762l-.506-.255h-16.935l-.506.255a1.538,1.538,0,0,0-.762.762l-.256.507V76.386l.256.507a1.538,1.538,0,0,0,.762.762l.506.255h16.935l.506-.255a1.539,1.539,0,0,0,.762-.762l.255-.507V60.673l1.731-.04a5.048,5.048,0,0,0,2.129-.25,3.091,3.091,0,0,0,1.287-1.263c.243-.451.245-.513.277-8.09l.031-7.635h-1.822Zm3.658.194c.032,7.577.034,7.639.277,8.09a3.093,3.093,0,0,0,1.288,1.263,5.048,5.048,0,0,0,2.129.25l1.731.04V76.386l.255.507a1.539,1.539,0,0,0,.762.762l.506.255h16.935l.506-.255a1.538,1.538,0,0,0,.762-.762l.255-.507V46.736l-.255-.507a1.538,1.538,0,0,0-.762-.762l-.506-.255h-16.935l-.506.255a1.539,1.539,0,0,0-.762.762c-.255.506-.255.508-.255,6.557v6.05h-1.538c-1.481,0-1.548-.01-1.817-.279l-.278-.279V43.395h-1.822Zm-24.549-2.186v.908h9.991V47.936h-9.991Zm11.808,0v.908h2.725V47.936h-2.725Zm20.891,0v.908h9.991V47.936h-9.991Zm11.808,0v.908h2.725V47.936h-2.725Zm-44.507,7.266v.908h9.991V55.2h-9.991Zm11.808,0v.908h2.725V55.2h-2.725Zm20.891,0v.908h9.991V55.2h-9.991Zm11.808,0v.908h2.725V55.2h-2.725Zm-44.507,7.266v.908h9.991V62.469h-9.991Zm11.808,0v.908h2.725V62.469h-2.725Zm20.891,0v.908h9.991V62.469h-9.991Zm11.808,0v.908h2.725V62.469h-2.725Zm-44.507,7.266v.908h9.991V69.736h-9.991Zm11.808,0v.908h2.725V69.736h-2.725Zm20.891,0v.908h9.991V69.736h-9.991Zm11.808,0v.908h2.725V69.736h-2.725Z" transform="translate(-3783 -25.258)" fill="#1660bd" fill-rule="evenodd"/>
</svg>
