<svg xmlns="http://www.w3.org/2000/svg" width="53.896" height="53.906" viewBox="0 0 53.896 53.906">
  <g id="Group_13458" data-name="Group 13458" transform="translate(18812.752 5759)">
    <path id="Path_405" data-name="Path 405" d="M812.248,52.737V26.631a4.762,4.762,0,0,1,.747-.918q6.309-4.693,12.645-9.349a1.6,1.6,0,0,1,2.61,1.341c-.012,1.86-.005,3.719,0,5.578,0,.164.018.328.03.553.176-.12.292-.193.4-.274q4.757-3.566,9.508-7.135A1.625,1.625,0,0,1,840,16.161a1.59,1.59,0,0,1,.888,1.6c-.018,1.842-.007,3.684,0,5.525,0,.165.017.329.03.561.22-.156.376-.261.526-.374q4.652-3.486,9.3-6.979a1.7,1.7,0,0,1,1.9-.33,1.668,1.668,0,0,1,.89,1.7q-.021,8.209-.008,16.419v.675h12.6c.013.124.027.191.027.258q0,8.552,0,17.1a1.538,1.538,0,0,1-1.612,1.573c-1.456.008-2.912,0-4.368,0a3.162,3.162,0,0,1-.328-.037v-10.6c0-1.425-.576-1.994-2.018-1.994q-2.763,0-5.526,0c-1.328,0-1.933.6-1.933,1.92q0,5.052,0,10.1v.607h-.728q-17.682,0-35.364.014a1.932,1.932,0,0,1-2.011-1.169m25.561-13.051h.006a36.018,36.018,0,0,0,.027,3.985,4.639,4.639,0,0,0,4.593,3.907,4.738,4.738,0,0,0,4.662-3.91,7.873,7.873,0,0,0,.1-1.254c-.019-2.223.066-4.456-.12-6.666a4.575,4.575,0,0,0-4.59-3.958,4.632,4.632,0,0,0-4.647,3.963,35.558,35.558,0,0,0-.026,3.933m-15.875-1.6c0-1.525,0-3.011,0-4.5a1.593,1.593,0,1,0-3.16-.013q0,2.946,0,5.892a1.631,1.631,0,0,0,1.8,1.793c1.332,0,2.665,0,4,0h.52c0,1.57,0,3.06,0,4.549a1.589,1.589,0,1,0,3.158-.014q.006-6.127,0-12.257a1.587,1.587,0,1,0-3.158-.02c-.007,1.351,0,2.7,0,4.051,0,.168-.015.336-.024.515Zm12.628,7.894A1.578,1.578,0,1,0,833,47.577a1.625,1.625,0,0,0,1.561-1.594" transform="translate(-19625 -5759)" fill="#d38f67"/>
    <path id="Path_406" data-name="Path 406" d="M834.459,0c1.044.2,2.1.359,3.13.626a16.792,16.792,0,0,1,7.562,4.347,1.593,1.593,0,1,1-2.216,2.274,13.814,13.814,0,0,0-7.8-3.9A14.006,14.006,0,0,0,823.22,7.057a3,3,0,0,1-1.191.7,1.449,1.449,0,0,1-1.608-.825,1.569,1.569,0,0,1,.323-1.881,17.255,17.255,0,0,1,5.748-3.8A16.683,16.683,0,0,1,831.161.095,2.123,2.123,0,0,0,831.512,0Z" transform="translate(-19625 -5759)" fill="#d38f67"/>
    <rect id="Rectangle_299" data-name="Rectangle 299" width="9.407" height="12.562" transform="translate(-18768.293 -5739.815)" fill="#d38f67"/>
    <path id="Path_410" data-name="Path 410" d="M856.673,15.959c0-1.666-.016-3.3.007-4.924a1.5,1.5,0,0,1,1.463-1.447q3.261-.027,6.523,0a1.5,1.5,0,0,1,1.465,1.445c.024,1.629.007,3.258.007,4.926Z" transform="translate(-19625 -5759)" fill="#d38f67"/>
    <path id="Path_411" data-name="Path 411" d="M833.848,6.423a10.47,10.47,0,0,1,6.92,3.1,1.542,1.542,0,0,1,.29,1.926,1.52,1.52,0,0,1-1.75.742,1.938,1.938,0,0,1-.8-.462,8.1,8.1,0,0,0-11.055.024,1.587,1.587,0,1,1-2.192-2.289c1.941-1.929,4.764-3.043,8.591-3.044" transform="translate(-19625 -5759)" fill="#d38f67"/>
    <rect id="Rectangle_300" data-name="Rectangle 300" width="3.087" height="9.421" transform="translate(-18771.457 -5714.551)" fill="#d38f67"/>
    <path id="Path_412" data-name="Path 412" d="M844.036,39.711c0,1.015,0,2.031,0,3.046a1.578,1.578,0,1,1-3.152,0q-.006-3.073,0-6.145a1.578,1.578,0,1,1,3.152,0c.005,1.033,0,2.066,0,3.1" transform="translate(-19625 -5759)" fill="#d38f67"/>
  </g>
</svg>
