<svg xmlns="http://www.w3.org/2000/svg" xmlns:xlink="http://www.w3.org/1999/xlink" width="54" height="54" viewBox="0 0 54 54">
  <defs>
    <clipPath id="clip-path">
      <rect id="Rectangle_14939" data-name="Rectangle 14939" width="54" height="54" fill="#0080cb"/>
    </clipPath>
  </defs>
  <g id="Group_20947" data-name="Group 20947" clip-path="url(#clip-path)">
    <path id="Path_29793" data-name="Path 29793" d="M24.426.28a22.3,22.3,0,0,0-9.155,3.351,20.556,20.556,0,0,0-3.231,2.6.793.793,0,0,0,.05,1.143c.429.429.765.368,1.525-.276A20.8,20.8,0,0,1,16.2,5.117,19.769,19.769,0,0,1,35.7,3.9a20.117,20.117,0,0,1,4.2,2.786c.923.774,1.211.96,1.484.96a.812.812,0,0,0,.8-.849c0-.305-.1-.459-.677-1.008A21.621,21.621,0,0,0,29.757.314,30.426,30.426,0,0,0,24.426.28ZM25,4.494a17.116,17.116,0,0,0-9.571,4.437c-.655.63-.74,1.072-.295,1.517s.788.35,1.608-.379a16.183,16.183,0,0,1,7.151-3.636,20.736,20.736,0,0,1,5.484-.109,15.782,15.782,0,0,1,7.819,3.688c.7.637,1.054.78,1.426.581a.823.823,0,0,0,.507-.8c0-.265-.109-.439-.55-.863a17.145,17.145,0,0,0-7.354-4.026A18.642,18.642,0,0,0,25,4.494Zm.9,4.17A14.736,14.736,0,0,0,21.357,9.94a14.885,14.885,0,0,0-2.821,1.949c-.707.661-.8,1.061-.348,1.513.433.433.864.355,1.6-.287a11.086,11.086,0,0,1,4.638-2.42,8.31,8.31,0,0,1,2.63-.242,8.217,8.217,0,0,1,2.711.281,11.5,11.5,0,0,1,4.669,2.549c.576.487.981.536,1.374.166a.779.779,0,0,0,.263-.62c0-.318-.089-.456-.606-.94a12.429,12.429,0,0,0-8.018-3.226C26.823,8.639,26.125,8.639,25.893,8.664Zm-.6,4.26a10.038,10.038,0,0,0-5.115,2.587,7.045,7.045,0,0,0-2.008,4.33c-.058.829-.05.876.213,1.139l.274.274H35.342l.274-.274c.262-.262.271-.31.213-1.135-.192-2.718-2.064-5.058-5.048-6.312A11.279,11.279,0,0,0,25.295,12.924Zm.567,1.695a7.057,7.057,0,0,0-5.395,3.511,8.375,8.375,0,0,0-.475,1.147l-.063.29H34.07l-.063-.29a8.418,8.418,0,0,0-.477-1.151,6.551,6.551,0,0,0-4.216-3.236A9.167,9.167,0,0,0,25.862,14.619ZM.836,24.025a2.634,2.634,0,0,0-.6.6L0,24.976V52.969l.24.356a2.634,2.634,0,0,0,.6.6l.356.24H52.809l.354-.239a3,3,0,0,0,.645-.659l.291-.421,0-14.019c0-7.71-.026-13.989-.063-13.952s-.168-.085-.292-.27a2.563,2.563,0,0,0-.582-.576l-.356-.24H1.191ZM.051,38.973c0,7.744.013,10.912.028,7.04s.015-10.208,0-14.08S.051,31.229.051,38.973ZM14.555,27.3v1.823L12.63,32.782l-1.925,3.663-1.622-.028-1.622-.028L5.735,33.7c-.949-1.479-1.848-2.8-2-2.927-.234-.206-.387-.237-1.161-.237H1.688v1.677l.6.032.6.032L4.61,34.965c.95,1.479,1.821,2.784,1.936,2.9.194.2.373.213,2.529.243l2.32.032.29-.3c.159-.163,1.25-2.127,2.423-4.365l2.134-4.069V25.473H14.555Zm23.2.146V29.41l2.134,4.069c1.174,2.238,2.264,4.2,2.423,4.365l.29.3,2.32-.032c2.174-.03,2.333-.046,2.536-.248.119-.119.992-1.424,1.94-2.9l1.724-2.684.594-.032.594-.032V30.535h-.891c-.774,0-.926.031-1.159.237-.148.131-1.044,1.448-1.993,2.927l-1.724,2.689-1.626.028-1.626.028L41.37,32.782l-1.925-3.663V25.473H37.758ZM26.4,26.209c-.342.141-.455.438-.455,1.2v.682l-.683.119a10.771,10.771,0,0,0-4.435,1.859l-.82.588-.485-.469a4.553,4.553,0,0,0-.72-.589.772.772,0,0,0-1.083.76c0,.22.154.462.573.9l.573.6-.569.828a10.755,10.755,0,0,0-1.7,4.467l-.065.554H15.85c-.61,0-.71.031-.987.308a.636.636,0,0,0,0,1.071c.277.277.377.308.987.308h.679l.065.554a10.775,10.775,0,0,0,1.7,4.456l.569.844-.571.6c-.6.628-.714,1-.427,1.375a.993.993,0,0,0,.884.329,3.72,3.72,0,0,0,.724-.585l.538-.52.675.509A10.718,10.718,0,0,0,25.13,48.9l.815.137v.722c0,.626.034.757.259.981a.676.676,0,0,0,1.064,0c.222-.222.259-.357.259-.944v-.686l.4-.058a11,11,0,0,0,4.843-1.742l.931-.618.369.348a3.575,3.575,0,0,0,.6.468.762.762,0,0,0,.927-.237c.273-.389.192-.774-.269-1.274l-.425-.461.595-.828a10.166,10.166,0,0,0,1.865-4.493l.121-.817h.672c.6,0,.7-.032.98-.308a1.022,1.022,0,0,0,.308-.535,1.022,1.022,0,0,0-.308-.535c-.276-.276-.378-.308-.98-.308h-.672l-.122-.817a10.461,10.461,0,0,0-1.872-4.5l-.587-.819.425-.461c.607-.659.554-1.251-.137-1.514-.366-.139-.664-.018-1.114.452l-.358.374-.644-.457a10.864,10.864,0,0,0-4.388-1.793c-1.233-.149-1.16-.1-1.16-.847a1.345,1.345,0,0,0-.185-.884A.853.853,0,0,0,26.4,26.209Zm1.15,4.765.03,1.283.686.138a7.975,7.975,0,0,1,1.568.574l.883.436.884-.879a11.068,11.068,0,0,0,.883-.934,8.848,8.848,0,0,0-2.082-1.22,9.9,9.9,0,0,0-2.662-.681C27.529,29.691,27.522,29.737,27.55,30.974Zm-2.924-.981a9.819,9.819,0,0,0-2.767,1.347l-.681.486.924.929.924.929.326-.244a7.006,7.006,0,0,1,1.992-.952l.6-.175V29.8L25.6,29.8A5.107,5.107,0,0,0,24.626,29.993Zm8.14,3.688c-.809.813-.906.948-.763,1.067a7.694,7.694,0,0,1,1.113,2.374l.121.585h2.631l-.068-.4a9.775,9.775,0,0,0-1.62-3.968,7.33,7.33,0,0,0-.463-.593C33.7,32.75,33.276,33.169,32.766,33.681ZM19.6,33.674a9.209,9.209,0,0,0-1.4,3.638l-.066.4h2.613l.131-.585a7.979,7.979,0,0,1,.556-1.436l.426-.85-.88-.885a11.083,11.083,0,0,0-.935-.884A3.333,3.333,0,0,0,19.6,33.674Zm6,.434a4.579,4.579,0,0,0-3.219,4.7,4.506,4.506,0,0,0,1.823,3.462,3.927,3.927,0,0,0,2.845.868,3.024,3.024,0,0,0,1.853-.337,4.66,4.66,0,0,0,0-8.487,3.337,3.337,0,0,0-1.695-.366A4.051,4.051,0,0,0,25.6,34.108ZM18.2,39.79a11.078,11.078,0,0,0,.746,2.485,10.019,10.019,0,0,0,1.1,1.759,11.083,11.083,0,0,0,.935-.884l.88-.885-.426-.85a7.979,7.979,0,0,1-.556-1.436l-.131-.585H18.131Zm14.924.165A7.281,7.281,0,0,1,32.115,42.2l-.248.326.931.927.931.927.383-.514A10.27,10.27,0,0,0,35.8,39.79l.068-.4H33.238Zm-26.522.1c-.148.131-1.044,1.448-1.992,2.927L2.883,45.67l-.6.032-.6.032v1.7l.946-.037c.775-.03.984-.075,1.156-.248.115-.116.989-1.421,1.942-2.9l1.732-2.689,1.62-.028,1.62-.028,1.925,3.663,1.925,3.663v3.647h1.688V48.535l-2.134-4.069c-1.174-2.238-2.262-4.2-2.418-4.359l-.284-.29H9.137C6.933,39.816,6.859,39.823,6.6,40.054Zm35.711.053c-.156.159-1.244,2.121-2.418,4.359l-2.134,4.069v3.938h1.688V48.826l1.925-3.663L43.295,41.5l1.625.028,1.625.028,1.721,2.689c.946,1.479,1.843,2.8,1.993,2.927.236.206.39.237,1.163.237h.891V45.733l-.594-.032-.594-.032L49.4,42.98c-.949-1.479-1.847-2.8-2-2.927-.263-.23-.338-.237-2.541-.237h-2.27ZM22.1,44.346l-.924.929.687.49A8.745,8.745,0,0,0,25.67,47.3h.275V44.788l-.6-.175a7.006,7.006,0,0,1-1.992-.952l-.326-.244Zm7.641-.187a6.981,6.981,0,0,1-1.477.547l-.686.139-.03,1.283c-.034,1.487-.136,1.395,1.221,1.116a9.331,9.331,0,0,0,3-1.225c.364-.234.684-.445.709-.469a11.247,11.247,0,0,0-1.838-1.814A8.584,8.584,0,0,0,29.742,44.159Z" transform="translate(0 -0.16)" fill="#0080cb" fill-rule="evenodd"/>
  </g>
</svg>
