<svg xmlns="http://www.w3.org/2000/svg" width="53.896" height="53.861" viewBox="0 0 53.896 53.861">
  <path id="Path_795" data-name="Path 795" d="M2500.836,8.882a3.47,3.47,0,0,0-2.164,2.219,3.84,3.84,0,0,0,.2,2.642,46.037,46.037,0,0,0,2.6,4.322.852.852,0,0,0,1.054,0,45.751,45.751,0,0,0,2.6-4.322,3.5,3.5,0,0,0-4.286-4.861Zm-16.526,2.609a3.471,3.471,0,0,0-2.164,2.219,3.842,3.842,0,0,0,.2,2.642,45.939,45.939,0,0,0,2.6,4.322.853.853,0,0,0,1.055,0,45.82,45.82,0,0,0,2.6-4.322,3.5,3.5,0,0,0-4.286-4.861Zm17.392-.084a.867.867,0,0,0-.218,1.466c.8.559,1.792-.457,1.146-1.169A.785.785,0,0,0,2501.7,11.408Zm-36.836,2.568a12.122,12.122,0,0,0-6.234,2.948c-.636.6-.724.985-.335,1.479s.832.4,1.813-.421A11.452,11.452,0,0,1,2464,15.955a9.533,9.533,0,0,1,8.562,2.024c.68.574.915.712,1.216.712a.869.869,0,0,0,.823-.906c0-.415-.708-1.111-2.013-1.98a10.277,10.277,0,0,0-5.923-1.844C2465.853,13.941,2465.046,13.948,2464.866,13.976Zm20.311.041a.867.867,0,0,0-.217,1.466c.8.559,1.792-.457,1.146-1.169A.786.786,0,0,0,2485.177,14.017Zm8.022,1.305a7.585,7.585,0,0,0-.109,3.958,1.774,1.774,0,0,0,.461.541c.282.209.461.228,2.229.241a6.959,6.959,0,0,1,2.356.2c1.067.448,1.359,1.134,1.359,3.187,0,1.669.133,2.262.552,2.479a10.432,10.432,0,0,0,3.739-.008,4.329,4.329,0,0,0,2.873-2.278l.26-.523-.345-.7a13.153,13.153,0,0,0-1.927-2.849l-.567-.606-.309.287a2.634,2.634,0,0,1-2.5.632c-.793-.222-1.37-.885-2.523-2.894l-1.008-1.758-.508-.118a14.108,14.108,0,0,0-2.971-.332l-.943,0Zm-2.368-.134a1.257,1.257,0,0,0-.239.569c-.2.906-.417,1.352-1.684,3.531-1.354,2.327-1.875,2.955-2.649,3.186a2.763,2.763,0,0,1-3.244-1.521l-.177-.343-.38.589a15.333,15.333,0,0,0-1.571,3.388c-.28.878-.313,1.088-.2,1.228a12.713,12.713,0,0,0,2.678,1.685,3.674,3.674,0,0,0,2.32.113,8.512,8.512,0,0,0,2.453-1.856c1.658-1.559,2.62-1.954,3.871-1.591,1.5.435,1.8.965,1.992,3.481.152,1.988.271,2.33.913,2.635.525.249,1.769.151,3.49-.275a4.57,4.57,0,0,1,2.749-.186,3.529,3.529,0,0,1,2.319,2.514,12.9,12.9,0,0,1-.593,6.336,3.43,3.43,0,0,0-.235,1,13.973,13.973,0,0,0,1.925-1.74,14.477,14.477,0,0,0,3.31-6.686,21,21,0,0,0,0-4.974,3.533,3.533,0,0,0-.207-.843,4.3,4.3,0,0,0-.573.54,5.436,5.436,0,0,1-2.439,1.491,7.522,7.522,0,0,1-2.565.335c-2.1.064-2.732-.078-3.427-.773-.617-.617-.8-1.278-.808-2.89a5.675,5.675,0,0,0-.262-2.268,14.056,14.056,0,0,0-2-.077h-1.923l-.719-.354c-1.68-.827-2.1-2.436-1.543-5.925.06-.375.044-.408-.194-.406A.9.9,0,0,0,2490.83,15.188Zm-25.9,2.315a8.034,8.034,0,0,0-3.724,1.82c-.533.493-.634.645-.634.955a.892.892,0,0,0,.713.869c.219.055.389-.008.737-.269,1.8-1.353,2.675-1.7,4.312-1.7a6.116,6.116,0,0,1,4.284,1.68,1.539,1.539,0,0,0,.685.327.933.933,0,0,0,.793-.908c0-.845-2.293-2.352-4.153-2.728A9.146,9.146,0,0,0,2464.929,17.5Zm.045,3.583a3.806,3.806,0,0,0-1.885,1.34.62.62,0,0,0-.012.625c.258.623.932.714,1.563.211a2.71,2.71,0,0,1,3.385,0c.633.5,1.306.412,1.565-.211.184-.444-.011-.816-.7-1.342A4.421,4.421,0,0,0,2464.975,21.086Zm25.376,5.014c-.263.189-.9.741-1.411,1.228a8,8,0,0,1-2.764,1.9,5.9,5.9,0,0,1-5.3-1.149,4.184,4.184,0,0,0-.571-.368,4.823,4.823,0,0,0-.053,1.006,13.875,13.875,0,0,0,4.265,9.948c.907.878,1.17,1.047,1.17.748a4.675,4.675,0,0,1,.379-.906,5.192,5.192,0,0,1,9.737,1.352,6.788,6.788,0,0,1-.072,2.408c-.075.257-.071.259.546.182a14.125,14.125,0,0,0,3.01-.832l.848-.327.426-1.109c1.439-3.741,1.817-7.064.923-8.126-.621-.738-1.121-.794-2.969-.332-2.863.716-4.532.478-5.441-.776a5.366,5.366,0,0,1-.758-3.077,16.06,16.06,0,0,0-.161-1.7.72.72,0,0,0-.337-.3A1.385,1.385,0,0,0,2490.351,26.1Zm-33.866.18a3.494,3.494,0,0,0-2.328,3.462v.689h24.381l-.048-.9a3.364,3.364,0,0,0-1.919-3.1l-.615-.3-9.459-.025C2457.685,26.09,2457,26.1,2456.485,26.281Zm-2.328,18.068V56.526h24.354V32.172h-24.354Zm35.23-6.719a3.618,3.618,0,0,0-2.071,4.22,41.471,41.471,0,0,0,2.845,4.918.823.823,0,0,0,1.053,0,39.593,39.593,0,0,0,2.7-4.594A3.5,3.5,0,0,0,2489.387,37.63Zm.9,2.5a.958.958,0,0,0-.37.435.677.677,0,0,0,.043.691.739.739,0,0,0,1.046.379.836.836,0,0,0,.049-1.511A.715.715,0,0,0,2490.288,40.129Zm-36.109,19.033a3.38,3.38,0,0,0,2.023,3.162l.51.236h19.244l.511-.236a3.381,3.381,0,0,0,2.023-3.162l.048-.9H2454.13Z" transform="translate(-2454.13 -8.699)" fill="#4bb293" fill-rule="evenodd"/>
</svg>
