<svg xmlns="http://www.w3.org/2000/svg" width="44.431" height="53.906" viewBox="0 0 44.431 53.906">
  <path id="Path_796" data-name="Path 796" d="M3169.188,1.241c-.672.551-2.565,6.064-3.5,10.2a69.413,69.413,0,0,0-1.527,9.392c0,.725.221.888,2.474,1.82,2.457,1.016,2.588,1.054,3.006.881a30.6,30.6,0,0,0,3.872-4.946c.54-.782,1.04-1.481,1.111-1.555.1-.107.592.058,2.464.832,2.1.869,2.331.987,2.288,1.186-.027.122-.951,6.523-2.054,14.224s-2.029,14.11-2.057,14.24l-.053.237-6.762,0c-6.249,0-6.78.016-6.987.184-.436.353-.46.535-.46,3.449v2.808l.358.358.358.358h43l.358-.358.358-.358V51.387a17.611,17.611,0,0,0-.118-3.038c-.271-.529-.477-.594-1.909-.6l-1.343,0V35.97l-.234-.164c-.181-.127-.528-.164-1.527-.164h-1.293V27.007l.405.065a1.16,1.16,0,0,0,1.213-.564,33.792,33.792,0,0,0,1.667-4.3c0-.5-.276-.833-.947-1.13-.331-.147-5.718-2.384-11.972-4.971s-11.384-4.717-11.4-4.731.281-.652.658-1.417a37.77,37.77,0,0,0,1.644-3.734,1.16,1.16,0,0,0-.45-1.155C3179.292,4.73,3170.113,1,3169.8,1A1.124,1.124,0,0,0,3169.188,1.241Zm12.5,18.951c-.15.878-.373,2.534-.344,2.563a14.578,14.578,0,0,0,1.267-1.009,6,6,0,0,0,1.142-1.1c-.163-.1-1.848-.8-1.928-.8C3181.786,19.85,3181.725,20,3181.692,20.192Zm5.84,2.064c0,.123,3.584,25.015,3.638,25.257s.093.237,1.26.237h1.209V41.907c0-5.7.005-5.848.211-6.054.188-.188.351-.211,1.527-.211h1.316V25.985l-2.185-.9c-1.2-.5-3.263-1.351-4.58-1.9S3187.532,22.219,3187.532,22.256Zm-3.94,1.871c-1.192,1.007-1.424,1.247-1.308,1.358.078.074.911.707,1.852,1.408,1.457,1.085,1.711,1.238,1.708,1.037-.006-.359-.7-4.918-.753-4.976A12.873,12.873,0,0,0,3183.593,24.127Zm-3.371,6.2c-.224,1.593-.388,2.913-.365,2.933a17.958,17.958,0,0,0,1.675-1.008c.9-.574,1.959-1.25,2.359-1.5l.728-.458-1.928-1.431c-1.059-.787-1.957-1.431-1.994-1.431S3180.445,28.734,3180.221,30.327Zm4.488,2.793c-.886.57-2.01,1.289-2.5,1.6l-.883.559,3.121,2.392c1.717,1.316,3.131,2.381,3.143,2.368s-.231-1.753-.543-3.867-.565-3.9-.567-3.975-.039-.127-.082-.122S3185.6,32.549,3184.709,33.12Zm-5.437,3.814c-.067.219-1.542,10.632-1.51,10.66.059.052,7.911-5.69,7.919-5.79A76.6,76.6,0,0,0,3179.272,36.934Zm5.653,8.533-3.08,2.231,3.385.028c1.863.015,3.409,0,3.438-.023.055-.055-.476-3.859-.592-4.236C3188.012,43.255,3187.749,43.422,3184.925,45.467Z" transform="translate(-3161 -1.004)" fill-rule="evenodd"/>
</svg>
