<svg xmlns="http://www.w3.org/2000/svg" xmlns:xlink="http://www.w3.org/1999/xlink" width="51" height="51" viewBox="0 0 51 51">
  <defs>
    <clipPath id="clip-path">
      <rect id="Rectangle_315" data-name="Rectangle 315" width="51" height="51" transform="translate(0.072 0.254)" fill="#3ee538"/>
    </clipPath>
  </defs>
  <g id="Group_13497" data-name="Group 13497" transform="translate(-0.072 -0.254)" clip-path="url(#clip-path)">
    <path id="Path_794" data-name="Path 794" d="M8.5,3.295a8.248,8.248,0,0,0-.01,1.142l.031,1.1H9.7V3.254H9.123A2.694,2.694,0,0,0,8.5,3.295Zm5.815,3.038-.789.794.42.42.42.42.8-.8.8-.8-.427-.419-.427-.419ZM2.6,6.059l-.362.422.826.762L3.895,8l.282-.265c.562-.529.555-.565-.244-1.37a4.317,4.317,0,0,0-.846-.732A1.465,1.465,0,0,0,2.6,6.059ZM23.422,8.342c-1.115,2.171-2.876,5.634-2.979,5.858a24.671,24.671,0,0,0,2.729.074h2.763l2.085-4.088c1.147-2.248,2.1-4.147,2.117-4.219.026-.106-.486-.131-2.7-.131h-2.73Zm6.454.794c-.926,1.816-1.891,3.715-2.144,4.221l-.46.92,2.837-.026,2.837-.026,2.135-4.195,2.135-4.195H31.56Zm6.582.781c-1.146,2.245-2.1,4.145-2.116,4.221-.027.117.417.135,2.816.112l2.849-.026,2.123-4.161c1.168-2.289,2.123-4.176,2.123-4.195s-1.285-.034-2.856-.034H38.541ZM43.482,10c-1.16,2.286-2.11,4.185-2.11,4.219a23.9,23.9,0,0,0,2.443.036l2.443-.027,2.132-4.195,2.132-4.195-2.466,0-2.466,0ZM40.827,27.479c-5.515,10.837-10.106,19.783-10.2,19.879-.164.165-.885.175-13.1.175H4.6l.589.6.589.6H31.2l5.256-10.251c2.891-5.638,7.325-14.294,9.854-19.235l4.6-8.985-.028-1.239-.028-1.239ZM8.317,8.823A4.3,4.3,0,0,0,6.272,9.95a4.069,4.069,0,1,0,6.53,1.112,4.165,4.165,0,0,0-2.88-2.236A3.474,3.474,0,0,0,8.317,8.823ZM.072,12.391v.6l1.117-.028,1.117-.028.03-.571.03-.571H.072Zm15.885,0v.6H18.24V11.792H15.957Zm1.44,7.77c-1.31,2.579-2.4,4.746-2.415,4.815-.026.1.537.12,2.714.1l2.747-.026,2.385-4.666c1.312-2.566,2.407-4.722,2.434-4.79.039-.1-.543-.124-2.716-.123H19.779Zm6.825.065C22.9,22.837,21.815,25,21.815,25.037s1.262.05,2.8.035l2.8-.026,2.405-4.716c1.323-2.594,2.406-4.749,2.408-4.79a26.573,26.573,0,0,0-2.8-.072l-2.8,0Zm7.862-1.7c-.856,1.679-1.954,3.821-2.438,4.76s-.882,1.732-.882,1.762,1.285.055,2.856.055h2.856l.614-1.216c.338-.669,1.441-2.836,2.452-4.815l1.838-3.6h-5.74ZM38.3,20.172c-1.315,2.589-2.39,4.756-2.39,4.817a8.964,8.964,0,0,0,2.408.083l2.408-.027L41.8,22.961c.588-1.147,1.686-3.3,2.439-4.79l1.371-2.705H40.693ZM3.1,17.551l-.789.794.42.42.42.42.8-.8.8-.8-.427-.419-.427-.419Zm10.887-.364-.411.419.792.788.792.788.4-.389a1.655,1.655,0,0,0,.4-.5,4.484,4.484,0,0,0-.78-.817l-.78-.708ZM8.933,19.209l-.323.042v2.172h1.2L9.78,20.305C9.749,19.057,9.78,19.1,8.933,19.209ZM44.864,24.63l-2.118,4.143.033,1.669c.033,1.66.035,1.672.334,2.157a2.1,2.1,0,0,0,3.393.307,2.351,2.351,0,0,0,.426-.735c.074-.256.1-2.161.079-6.029l-.029-5.655ZM12.65,29.489C10.7,33.3,10.1,34.505,10.1,34.575c0,.028,1.226.052,2.725.052h2.724l.836-1.613c.46-.887,1.422-2.764,2.139-4.17l1.3-2.556H14.285Zm6.393.912c-1.151,2.263-2.093,4.139-2.093,4.17s1.262.055,2.8.055h2.8l2.117-4.168,2.117-4.169H21.136Zm6.991-.021c-1.147,2.251-2.1,4.127-2.118,4.17a25.7,25.7,0,0,0,2.833.077h2.866L31.721,30.5c1.159-2.267,2.107-4.143,2.107-4.17s-1.284-.048-2.854-.048H28.119Zm7.021.08-2.112,4.167h4.92l2.085-4.093c1.147-2.251,2.1-4.127,2.118-4.17a18.9,18.9,0,0,0-2.432-.075l-2.465,0ZM44.972,34.8l-.621.035V50.809H45.84V42.767c0-6.377-.026-8.038-.124-8.023C45.648,34.755,45.313,34.78,44.972,34.8ZM7.015,40.558c-1.321,2.607-2.534,4.976-2.7,5.263l-.293.523,2.8-.026,2.8-.026,2.617-5.113c1.44-2.812,2.62-5.169,2.622-5.237,0-.1-.6-.124-2.719-.124H9.417Zm6.622.458c-1.454,2.859-2.644,5.227-2.644,5.262s1.262.062,2.8.061l2.8,0,2.631-5.179c1.447-2.849,2.646-5.216,2.664-5.26a23.986,23.986,0,0,0-2.792-.08H16.281Zm6.986-.026c-1.447,2.843-2.646,5.21-2.664,5.26a19.757,19.757,0,0,0,2.829.09h2.863l2.656-5.2c1.461-2.862,2.656-5.23,2.656-5.261s-1.284-.056-2.854-.055l-2.854,0Zm9.252-4.255c-.27.505-1.482,2.873-2.694,5.262l-2.2,4.343h4.928l2.631-5.17c1.447-2.844,2.646-5.211,2.664-5.261a14.244,14.244,0,0,0-2.4-.091H30.366ZM6.9,52.156a1.232,1.232,0,0,0-.572,1.031v.3H45.741V52L26.456,52C9.592,52.008,7.137,52.027,6.9,52.156Z" transform="translate(0 -2.702)" fill="#3ee538" fill-rule="evenodd"/>
  </g>
</svg>
