<svg xmlns="http://www.w3.org/2000/svg" width="50.522" height="49.034" viewBox="0 0 50.522 49.034">
  <g id="Group_13450" data-name="Group 13450" transform="translate(19601.584 5754.774)">
    <path id="Path_354" data-name="Path 354" d="M60.74,22.619v4.732c-.459,0-.891-.006-1.324,0-.586.009-.868.259-.862.752.007.471.316.738.884.748.418.006.837,0,1.292,0v4.728H59.185c-.456,0-.912-.009-1.368,0a.776.776,0,0,0-.822.77.76.76,0,0,0,.807.722c.772.011,1.544,0,2.316,0h.609v4.729c-.566,0-1.136,0-1.707,0a3.12,3.12,0,0,0-.628.03.7.7,0,0,0-.608.794.671.671,0,0,0,.673.678c.543.029,1.087.016,1.631.02h.647v4.746H58.421c-.211,0-.422-.007-.632,0a.756.756,0,0,0-.794.736.771.771,0,0,0,.781.763c.824.021,1.649.006,2.474.009.153,0,.307.016.487.025v1.821H27.774V47.59c.894,0,1.766.008,2.637-.006.221,0,.524-.005.641-.138a1.088,1.088,0,0,0,.321-.794.9.9,0,0,0-.645-.539c-.784-.071-1.577-.032-2.366-.035h-.589V41.332c.618,0,1.209.005,1.8,0,.209,0,.483.036.611-.077a1.274,1.274,0,0,0,.463-.734.673.673,0,0,0-.711-.7c-.525-.031-1.052-.011-1.578-.013h-.581v-4.73c.972,0,1.914,0,2.856,0,.382,0,.7-.163.743-.521a1.323,1.323,0,0,0-.285-.822c-.09-.126-.38-.147-.581-.15-.893-.015-1.786-.007-2.722-.007V28.853c.428,0,.844.008,1.26,0a.781.781,0,0,0,.863-.787c-.017-.426-.348-.7-.869-.712-.4-.007-.8,0-1.25,0V22.619h2.16c1.113,0,1.463-.178,1.473-.752s-.353-.776-1.5-.776H27.786V16.958H60.744v4.133h-1.79c-1.575,0-1.949.143-1.96.75-.011.623.386.778,1.988.778ZM54.672,34.292A10.413,10.413,0,1,0,44.28,44.724,10.462,10.462,0,0,0,54.672,34.292" transform="translate(-19625 -5759)" fill="#55a52a"/>
    <path id="Path_355" data-name="Path 355" d="M44.241,15.387q-8.866,0-17.733,0c-.885,0-1.411-.389-1.536-1.115A1.308,1.308,0,0,1,26,12.74a3.575,3.575,0,0,1,.731-.064q17.521,0,35.044,0a3.664,3.664,0,0,1,.783.072,1.335,1.335,0,0,1-.217,2.629c-.192.014-.386.01-.579.01H44.241" transform="translate(-19625 -5759)" fill="#55a52a"/>
    <path id="Path_356" data-name="Path 356" d="M59.261,11.139H29.287A2.41,2.41,0,0,1,31.855,8.07c8.223,0,16.446.026,24.668-.02a2.523,2.523,0,0,1,2.738,3.089" transform="translate(-19625 -5759)" fill="#55a52a"/>
    <path id="Path_357" data-name="Path 357" d="M48.731,51.7h24a3.279,3.279,0,0,1,.525.011.771.771,0,0,1,.1,1.514,2.1,2.1,0,0,1-.574.036q-24.1,0-48.208,0A2.063,2.063,0,0,1,24,53.221a.771.771,0,0,1,.1-1.513,3.291,3.291,0,0,1,.526-.011h24.1" transform="translate(-19625 -5759)" fill="#55a52a"/>
    <path id="Path_358" data-name="Path 358" d="M62.293,26.815V24.521c.194-.011.363-.03.533-.03q2.946,0,5.891,0c1.083,0,1.476.381,1.477,1.441q0,11.493,0,22.986c0,.138-.015.276-.026.457h-2.3v-.694q0-9.835,0-19.672c0-.3,0-.6-.026-.893a1.3,1.3,0,0,0-1.333-1.282c-1.209-.029-2.419-.015-3.629-.019-.188,0-.376,0-.588,0" transform="translate(-19625 -5759)" fill="#55a52a"/>
    <path id="Path_359" data-name="Path 359" d="M49,6.52H39.523c0-.544-.023-1.066.007-1.585.027-.476.367-.7.987-.7q3.444,0,6.888,0c.245,0,.491-.008.736,0A.777.777,0,0,1,49,5.074c.013.469,0,.939,0,1.446" transform="translate(-19625 -5759)" fill="#55a52a"/>
    <path id="Path_360" data-name="Path 360" d="M54.672,34.292A10.413,10.413,0,1,1,44.239,23.9,10.458,10.458,0,0,1,54.672,34.292m-19.306.039a8.888,8.888,0,1,0,8.889-8.908,8.888,8.888,0,0,0-8.889,8.908" transform="translate(-19625 -5759)" fill="#55a52a"/>
    <path id="Path_361" data-name="Path 361" d="M35.366,34.331A8.888,8.888,0,1,1,44.282,43.2a8.918,8.918,0,0,1-8.916-8.868m13.31,1.816c-.161-.585-.274-1.189-.491-1.752a28.62,28.62,0,0,0-3.235-5.753.752.752,0,0,0-1.393.025c-.967,1.582-1.938,3.164-2.812,4.8a6.661,6.661,0,0,0-.782,2.371,4.277,4.277,0,0,0,4.047,4.6,4.474,4.474,0,0,0,4.666-4.284" transform="translate(-19625 -5759)" fill="#55a52a"/>
    <path id="Path_362" data-name="Path 362" d="M48.676,36.147a4.474,4.474,0,0,1-4.666,4.284,4.278,4.278,0,0,1-4.048-4.6,6.681,6.681,0,0,1,.782-2.371c.874-1.633,1.846-3.215,2.812-4.8a.753.753,0,0,1,1.394-.026,28.675,28.675,0,0,1,3.235,5.753c.217.564.33,1.167.491,1.753M44.312,30.4l-.222-.042c-.814,1.58-1.643,3.153-2.433,4.745a2.386,2.386,0,0,0-.132,1.74,2.864,2.864,0,0,0,3.5,1.972,2.742,2.742,0,0,0,1.94-3.394A22.509,22.509,0,0,0,44.312,30.4" transform="translate(-19625 -5759)" fill="#55a52a"/>
    <path id="Path_363" data-name="Path 363" d="M44.312,30.4a22.509,22.509,0,0,1,2.653,5.021,2.742,2.742,0,0,1-1.94,3.394,2.864,2.864,0,0,1-3.5-1.972,2.386,2.386,0,0,1,.132-1.74c.79-1.592,1.619-3.165,2.433-4.745Z" transform="translate(-19625 -5759)" fill="#55a52a"/>
  </g>
</svg>
