<svg xmlns="http://www.w3.org/2000/svg" width="32.815" height="50.565" viewBox="0 0 32.815 50.565">
  <g id="Group_13451" data-name="Group 13451" transform="translate(19571.213 5657.204)">
    <path id="Path_364" data-name="Path 364" d="M78.15,141.6c.254,1.07.5,2.1.743,3.132.327,1.4.655,2.792.969,4.192a.477.477,0,0,0,.564.442c1.192-.024,2.386-.031,3.577,0a1.482,1.482,0,0,1,1.528,1.964,1.465,1.465,0,0,1-1.339,1.017,4.834,4.834,0,0,1-.525.007H56.732a5.077,5.077,0,0,1-.579-.012,1.5,1.5,0,0,1-1.354-1.487,1.453,1.453,0,0,1,1.312-1.459,5,5,0,0,1,.682-.037c2.648,0,5.3.009,7.943-.014a2.121,2.121,0,0,0,1.027-.288q5.951-3.562,11.879-7.163c.148-.089.3-.173.508-.293" transform="translate(-19625 -5759)" fill="#001dff"/>
    <path id="Path_365" data-name="Path 365" d="M74.482,140.365l-13.916,8.409c1.052-4.486,2.075-8.846,3.11-13.261l10.806,4.852" transform="translate(-19625 -5759)" fill="#001dff"/>
    <path id="Path_366" data-name="Path 366" d="M64.415,132.369,67.3,120.062a7.9,7.9,0,0,0,5.79,0c.207.856.413,1.695.611,2.536.313,1.328.613,2.66.936,3.985.068.278.045.446-.233.591q-4.842,2.527-9.674,5.073c-.073.038-.154.062-.316.126" transform="translate(-19625 -5759)" fill="#001dff"/>
    <path id="Path_367" data-name="Path 367" d="M86.6,113.025A16.344,16.344,0,0,1,83,123.284a1.491,1.491,0,0,1-2.691-.608,1.667,1.667,0,0,1,.473-1.393,12.984,12.984,0,0,0,2.46-5.119A13.285,13.285,0,0,0,80.586,104.5a2.844,2.844,0,0,1-.5-.844,1.446,1.446,0,0,1,.729-1.695,1.486,1.486,0,0,1,1.817.358,15.632,15.632,0,0,1,2.7,4.359,16.029,16.029,0,0,1,1.274,6.344" transform="translate(-19625 -5759)" fill="#001dff"/>
    <path id="Path_368" data-name="Path 368" d="M53.788,113.6a16.8,16.8,0,0,1,3.829-11.084,1.5,1.5,0,1,1,2.305,1.881,13.439,13.439,0,0,0-.353,16.815,1.8,1.8,0,0,1,.526,1.429,1.44,1.44,0,0,1-1.132,1.24,1.415,1.415,0,0,1-1.533-.562,15.878,15.878,0,0,1-3.245-6.811c-.236-1.145-.32-2.321-.4-2.908" transform="translate(-19625 -5759)" fill="#001dff"/>
    <path id="Path_369" data-name="Path 369" d="M65.543,112.989a4.661,4.661,0,1,1,4.665,4.7,4.691,4.691,0,0,1-4.665-4.7" transform="translate(-19625 -5759)" fill="#001dff"/>
    <path id="Path_370" data-name="Path 370" d="M59.659,113.009a10.6,10.6,0,0,1,2.258-6.475,1.5,1.5,0,1,1,2.359,1.824,7.459,7.459,0,0,0-.527,8.569c.142.26.336.491.487.748a1.484,1.484,0,0,1-2.466,1.649,10.672,10.672,0,0,1-2.111-6.315" transform="translate(-19625 -5759)" fill="#001dff"/>
    <path id="Path_371" data-name="Path 371" d="M80.82,113.048a11.255,11.255,0,0,1-2.152,6.236,1.452,1.452,0,0,1-1.512.631,1.411,1.411,0,0,1-1.129-.989,1.609,1.609,0,0,1,.318-1.524,7.423,7.423,0,0,0,1.322-3.329,7.509,7.509,0,0,0-1.432-5.6,2.721,2.721,0,0,1-.474-.915,1.414,1.414,0,0,1,.8-1.61,1.46,1.46,0,0,1,1.8.421,9.514,9.514,0,0,1,1.993,3.89c.223.912.316,1.856.468,2.785" transform="translate(-19625 -5759)" fill="#001dff"/>
    <path id="Path_372" data-name="Path 372" d="M67.616,134.053l7.806-4.1c.661,2.819,1.314,5.6,2,8.5l-9.8-4.4" transform="translate(-19625 -5759)" fill="#001dff"/>
  </g>
</svg>
