<svg xmlns="http://www.w3.org/2000/svg" width="53.682" height="53.894" viewBox="0 0 53.682 53.894">
  <g id="Group_13454" data-name="Group 13454" transform="translate(19219.645 5476.894)">
    <path id="Path_413" data-name="Path 413" d="M429.143,336a1.93,1.93,0,0,1-1.171-2.011c.032-5.139.01-10.279.025-15.418a.779.779,0,0,0-.475-.8,9.548,9.548,0,0,1-5.294-8.225,9.68,9.68,0,0,1,4.766-9.123,1.3,1.3,0,0,1,2.155.974c.322,2.147.633,4.295.953,6.473h4.189q.323-2.219.647-4.446c.1-.693.2-1.386.309-2.078a1.292,1.292,0,0,1,2.062-.984,9.76,9.76,0,0,1,4.556,6.061,9.88,9.88,0,0,1-5.04,11.377.7.7,0,0,0-.429.722c.012,5.139-.008,10.279.023,15.418A1.949,1.949,0,0,1,435.248,336Z" transform="translate(-19625 -5759)" fill="#ffd800"/>
    <path id="Path_414" data-name="Path 414" d="M442.936,323.917c0-1.491-.013-2.982.012-4.473a1.245,1.245,0,0,1,.276-.736,14.724,14.724,0,1,0-22.076-.023,1.321,1.321,0,0,1,.294.781c.02,3,.008,6,.02,9a.735.735,0,0,1-.374.726c-.933.59-1.838,1.223-2.762,1.827a1.594,1.594,0,0,1-2.267-.242q-2.852-2.841-5.693-5.694a1.6,1.6,0,0,1-.212-2.309c.608-.922,1.213-1.846,1.843-2.752a.713.713,0,0,0,.063-.808q-.725-1.628-1.361-3.294a.719.719,0,0,0-.615-.525c-1.118-.208-2.233-.436-3.348-.662a1.572,1.572,0,0,1-1.38-1.7q0-4.078,0-8.157a1.569,1.569,0,0,1,1.423-1.717c1.132-.23,2.267-.446,3.392-.705a.823.823,0,0,0,.48-.428c.493-1.12.938-2.26,1.427-3.381a.638.638,0,0,0-.049-.716c-.639-.922-1.253-1.861-1.869-2.8a1.611,1.611,0,0,1,.236-2.347q2.8-2.814,5.619-5.62a1.629,1.629,0,0,1,2.391-.236c.935.619,1.859,1.255,2.808,1.85a.826.826,0,0,0,.649.045c1.139-.444,2.259-.94,3.4-1.384a.63.63,0,0,0,.465-.54c.211-1.135.447-2.265.682-3.4a1.564,1.564,0,0,1,1.691-1.392q4.105,0,8.21,0a1.562,1.562,0,0,1,1.669,1.358c.24,1.147.475,2.3.693,3.447a.582.582,0,0,0,.428.5c1.157.448,2.291.954,3.447,1.406a.823.823,0,0,0,.647-.053c.95-.6,1.873-1.233,2.81-1.851a1.615,1.615,0,0,1,2.35.217q2.834,2.823,5.657,5.656a1.609,1.609,0,0,1,.24,2.309c-.625.952-1.275,1.889-1.881,2.853a.827.827,0,0,0-.049.649q.676,1.734,1.426,3.439a.759.759,0,0,0,.444.4c1.16.263,2.33.48,3.493.728a1.561,1.561,0,0,1,1.351,1.674q.006,4.105,0,8.21a1.563,1.563,0,0,1-1.347,1.679c-1.163.249-2.333.466-3.493.728a.757.757,0,0,0-.447.392q-.746,1.705-1.426,3.439a.83.83,0,0,0,.046.649c.606.964,1.255,1.9,1.881,2.853a1.61,1.61,0,0,1-.236,2.31q-2.823,2.832-5.656,5.656a1.613,1.613,0,0,1-2.308.252c-.937-.617-1.876-1.231-2.792-1.878a.831.831,0,0,1-.306-.581c-.025-1.543-.014-3.087-.014-4.631" transform="translate(-19625 -5759)" fill="#ffd800"/>
  </g>
</svg>
