<svg xmlns="http://www.w3.org/2000/svg" xmlns:xlink="http://www.w3.org/1999/xlink" width="18" height="18" viewBox="0 0 18 18">
  <defs>
    <clipPath id="clip-path">
      <rect id="Rectangle_13007" data-name="Rectangle 13007" width="18" height="18" transform="translate(0 299.981)" fill="#0080cb"/>
    </clipPath>
  </defs>
  <g id="Group_18894" data-name="Group 18894" transform="translate(0 -299.981)" clip-path="url(#clip-path)">
    <path id="Path_27930" data-name="Path 27930" d="M82.425,300.144c-.095.038-.181.129-.525.556a43.99,43.99,0,0,0-3.374,4.881c-.4.685-1.079,2.02-1.33,2.616a8.777,8.777,0,0,0-.849,4.106,6.287,6.287,0,0,0,6.288,5.8,6.108,6.108,0,0,0,3.828-1.284,6.292,6.292,0,0,0,2.389-6.081,12.6,12.6,0,0,0-1.179-3.406,30.447,30.447,0,0,0-2.621-4.375,33.7,33.7,0,0,0-2.1-2.744A.828.828,0,0,0,82.425,300.144ZM78.6,310.049a4.387,4.387,0,0,0-.463,1.587,3.72,3.72,0,0,0,1.121,2.988,3.958,3.958,0,0,0,1.125.81,3.862,3.862,0,0,0,1.828.443,3.613,3.613,0,0,0,1.3-.133.222.222,0,0,0,.138-.273c-.058-.109-.122-.14-.372-.178-.134-.021-.379-.069-.544-.106a4.96,4.96,0,0,1-3.282-2.546,4.464,4.464,0,0,1-.469-2.113c.009-.388.006-.409-.072-.472A.232.232,0,0,0,78.6,310.049Z" transform="translate(-73.646 -0.118)" fill="#0080cb" fill-rule="evenodd"/>
  </g>
</svg>
