<svg xmlns="http://www.w3.org/2000/svg" xmlns:xlink="http://www.w3.org/1999/xlink" width="80" height="80" viewBox="0 0 80 80">
  <defs>
    <clipPath id="clip-path">
      <rect id="Rectangle_9820" data-name="Rectangle 9820" width="80" height="80" transform="translate(-0.422 -0.391)" fill="#3e7457"/>
    </clipPath>
  </defs>
  <g id="Group_14725" data-name="Group 14725" transform="translate(0.422 0.391)" clip-path="url(#clip-path)">
    <path id="Path_22935" data-name="Path 22935" d="M1911.214,37.57a37.691,37.691,0,0,0-5.913,1.248,38.816,38.816,0,0,0-25.777,24.552,37.147,37.147,0,0,0-1.3,4.819c0,.375,2.821.972,5.37,1.136,2.219.143,2.315.105,2.873-1.121a13.261,13.261,0,0,1,5.714-6.173c.755-.386,1.531-.751,1.727-.811a9.3,9.3,0,0,0,1.712-1.514c2.412-2.5,4.25-3.721,8.842-5.863,6.291-2.936,10.182-5.718,14.15-10.116a61.412,61.412,0,0,0,4.671-5.741,11.842,11.842,0,0,0-1.355-.286A59.985,59.985,0,0,0,1911.214,37.57Zm14.635,1.36c-.118.19-1.005,1.334-1.972,2.543-6.067,7.59-10.48,11.094-18.655,14.812-1.113.506-2.583,1.251-3.268,1.654a16.909,16.909,0,0,0-3.346,2.451c0,.069.232.125.517.125a13.575,13.575,0,0,1,3.536.71c5.459,1.782,9.167,7.644,8.806,13.917a15.729,15.729,0,0,1-2.97,8.416c-.641.978-.946,1.574-.823,1.609,4.208,1.214,6.514,3.353,6.758,6.27a7.188,7.188,0,0,1-.966,4.168c-1.421,2.952-4.542,6.091-9.021,9.074a12.635,12.635,0,0,0-3.806,3.453,15.458,15.458,0,0,0-1.407,2.548,38.587,38.587,0,0,0,39.043-3.142c1.953-1.378,2.7-2.048,2.524-2.262a84.361,84.361,0,0,1-2.666-8.892,85.466,85.466,0,0,1-1.939-10.348c-.484-3.63-.492-3.664-.815-3.4a20.248,20.248,0,0,0-1.4,1.871c-2.275,3.289-2.937,3.859-4.48,3.859-4.306,0-12.064-5.811-13.571-10.163a6.082,6.082,0,0,1,.016-3.686,6.046,6.046,0,0,1,3.669-2.963c2.182-.773,2.742-1.471,2.957-3.682a11.1,11.1,0,0,1,.37-2.032c.921-2.555,3.771-4.439,8.889-5.876,1.112-.312,2.1-.59,2.191-.617.11-.033.036-.549-.216-1.5a17.547,17.547,0,0,1-.059-7.368,16.676,16.676,0,0,1,2.823-5.7,5.42,5.42,0,0,0,.786-1.013c0-.155-.064-.2-2.186-1.418a38.145,38.145,0,0,0-6.565-2.966C1926.123,38.526,1926.1,38.522,1925.849,38.93Zm19.1,3.85a13.068,13.068,0,0,0-3.775,1.311,12.029,12.029,0,0,0-3.413,3.411A11.251,11.251,0,0,0,1936,54.659c.149,3.959,1.119,5.739,7.729,14.2,2.5,3.2,2.751,3.4,3.4,2.741.465-.476,4.393-5.549,5.888-7.6,2.549-3.5,3.4-5.133,3.864-7.4a12.488,12.488,0,0,0-3-10.914A10.758,10.758,0,0,0,1944.945,42.779Zm-.636,3.889a6.669,6.669,0,0,0-3.956,3.547,4.905,4.905,0,0,0-.632,2.462,6.744,6.744,0,0,0,5.722,7.251,6.956,6.956,0,0,0,5.867-1.9,6.814,6.814,0,0,0-1.786-11.018,4.758,4.758,0,0,0-2.737-.622A5.8,5.8,0,0,0,1944.308,46.669Zm.678,2.438a4.8,4.8,0,0,0-2.582,2.779,4.194,4.194,0,0,0,1.108,4.329,4.448,4.448,0,0,0,5.862.126,4.3,4.3,0,0,0-.917-7.028A4.921,4.921,0,0,0,1944.986,49.106Zm-12.078,13.2c-3.627,1.01-5.573,1.963-6.8,3.33-.77.858-.89,1.2-1.05,3.016-.26,2.927-1.318,4.218-4.254,5.19a4.208,4.208,0,0,0-1.923,1.074c-.6.6-.661.727-.661,1.43,0,1.941,2.354,4.791,6.069,7.344,2.479,1.7,4.542,2.542,5.351,2.173a6.2,6.2,0,0,0,1.279-1.439c2.8-3.964,3.311-4.454,4.623-4.454.722,0,.833.053,1.446.694.9.941,1.316,2.312,1.93,6.4a85.047,85.047,0,0,0,1.788,9.11c.568,2.242,2.073,7.318,2.208,7.45a5.866,5.866,0,0,0,1.178-1.089,38.676,38.676,0,0,0,10.059-33.271c-.173-1-.336-1.834-.364-1.861s-1.015,1.2-2.193,2.719-2.325,2.968-2.547,3.212a3.369,3.369,0,0,1-2.518,1.087c-1.293,0-2.009-.464-3.423-2.232-2.6-3.256-5.207-6.71-6.413-8.517-.943-1.414-1.352-1.9-1.586-1.9A21.611,21.611,0,0,0,1932.908,62.3Zm-36.632.923a10.219,10.219,0,0,0-7.4,5.906,11.389,11.389,0,0,0-1.109,4.484c-.249,3.816.868,6.529,4.875,11.837,1.978,2.619,4.972,6.409,5.242,6.632.531.441.948.067,3.321-2.973,6.1-7.82,7.3-9.911,7.644-13.313.594-5.922-2.6-11.01-7.788-12.421A13.314,13.314,0,0,0,1896.276,63.225Zm.623,3.562a9.239,9.239,0,0,0-1.634.57,9.086,9.086,0,0,0-3.014,2.921,6.858,6.858,0,0,0,5.971,10.049,6.483,6.483,0,0,0,3.932-1.127,6.907,6.907,0,0,0,1.65-9.825,7.267,7.267,0,0,0-3.3-2.388A7.831,7.831,0,0,0,1896.9,66.787Zm-.039,2.664a4.324,4.324,0,0,0-2.382,5.918,4.26,4.26,0,0,0,6.83,1.2,4.345,4.345,0,0,0,0-6.13A4.417,4.417,0,0,0,1896.859,69.451Zm-19.209,2.059c-.068.329-.125,2.314-.121,4.41a31.393,31.393,0,0,0,.941,8.9,27.748,27.748,0,0,0,1.458,4.635,11.6,11.6,0,0,0,.923-1.673,54.886,54.886,0,0,1,3.836-6.529l1.281-1.9-.319-1.057a11.8,11.8,0,0,1-.332-3.72l-.012-2.662-1.945-.1a26.111,26.111,0,0,1-5.165-.8C1877.808,70.92,1877.769,70.956,1877.651,71.51Zm8.7,11.841a68.806,68.806,0,0,0-3.553,6.263,21.2,21.2,0,0,1-1.376,2.463l-.322.362.777,1.5a39.663,39.663,0,0,0,13.141,14.379,13.3,13.3,0,0,0,1.8,1.063,3.476,3.476,0,0,0,.767-1.107,16.855,16.855,0,0,1,3.08-4.052c.367-.3,1.48-1.077,2.473-1.734,5.325-3.526,8.77-7.665,8.772-10.537,0-1.935-1.723-3.431-4.981-4.327l-1.1-.3-2.172,2.818c-1.2,1.55-2.412,3.087-2.706,3.416a3.21,3.21,0,0,1-2.6,1.2c-1.575,0-1.959-.3-4.384-3.4-3.022-3.865-4.32-5.608-5.608-7.533-.616-.92-1.147-1.673-1.18-1.673A11.309,11.309,0,0,0,1886.356,83.351Z" transform="translate(-1877.472 -36.148)" fill="#3e7457" fill-rule="evenodd"/>
  </g>
</svg>
