<svg xmlns="http://www.w3.org/2000/svg" width="84.401" height="80" viewBox="0 0 84.401 80">
  <path id="Path_22934" data-name="Path 22934" d="M1313.314,79.227a21.558,21.558,0,0,0-1.691,3.137c-.764,1.6-1.4,2.923-1.415,2.939s-1.253.2-2.753.412c-3.91.548-3.9.545-4.284.933-.771.771-.538,1.184,2.121,3.749l2.48,2.395-.567,3.086c-.313,1.7-.567,3.259-.567,3.47a1.3,1.3,0,0,0,1.235,1.111,17.141,17.141,0,0,0,3.366-1.529l2.857-1.529,2.831,1.529c2.986,1.612,3.635,1.789,4.259,1.165.471-.471.466-.576-.2-4.207l-.566-3.075,2.384-2.287a16.74,16.74,0,0,0,2.5-2.737,1.362,1.362,0,0,0-.64-1.425c-.162-.062-1.72-.315-3.466-.562s-3.193-.468-3.217-.491-.664-1.35-1.424-2.948a21.63,21.63,0,0,0-1.684-3.134,1.443,1.443,0,0,0-1.555,0ZM1282.5,92.366a18.014,18.014,0,0,0-1.833,3.244l-1.431,2.958-3.253.432c-2.813.374-3.308.488-3.666.846-.836.836-.631,1.214,2.055,3.79l2.47,2.369-.56,3.02c-.307,1.661-.56,3.231-.56,3.487a1.547,1.547,0,0,0,1.275,1.221,25.023,25.023,0,0,0,3.25-1.562l2.931-1.562,2.9,1.562a25.85,25.85,0,0,0,3.193,1.562,1.481,1.481,0,0,0,1.189-.744c.153-.287.066-1.126-.385-3.667l-.586-3.3,2.293-2.239a31.983,31.983,0,0,0,2.486-2.6,1.267,1.267,0,0,0-.429-1.538,21.958,21.958,0,0,0-3.6-.668l-3.211-.426-1.406-2.959a32.218,32.218,0,0,0-1.607-3.126A1.341,1.341,0,0,0,1282.5,92.366Zm61.85-.012a18.584,18.584,0,0,0-1.793,3.241l-1.42,2.981-3.293.431c-2.846.373-3.348.487-3.7.842a1,1,0,0,0-.24,1.336c.093.15,1.207,1.3,2.482,2.566l2.313,2.293-.589,3.307c-.549,3.081-.569,3.337-.3,3.75.554.848,1.074.787,3.273-.383,1.108-.589,2.462-1.3,3.013-1.586l1-.516,2.91,1.556a22.184,22.184,0,0,0,3.288,1.558,1.484,1.484,0,0,0,1.167-1.29c0-.247-.247-1.8-.549-3.443l-.551-2.994,2.462-2.364c2.153-2.068,2.46-2.436,2.458-2.942,0-1.018-.5-1.224-4.112-1.7l-3.222-.428-1.409-2.942C1345.894,92.187,1345.365,91.644,1344.352,92.354Zm-34,14.025a22.877,22.877,0,0,0-16.261,11.9,22.626,22.626,0,0,0,7.117,28.732,22.509,22.509,0,0,0,35-14.184,28.9,28.9,0,0,0,.091-8,22.631,22.631,0,0,0-18.616-18.456A27.031,27.031,0,0,0,1310.354,106.379Zm1.054,7a15.658,15.658,0,0,0-11.142,8.458,13.347,13.347,0,0,0-1.5,6.809,10.894,10.894,0,0,0,.48,4.055,15.333,15.333,0,0,0,11.242,10.855,18.935,18.935,0,0,0,6.879.092,15.5,15.5,0,0,0,11.662-11.274,17.755,17.755,0,0,0,0-7.628,15.989,15.989,0,0,0-5.324-8.2,18.967,18.967,0,0,0-5.7-2.9A24.321,24.321,0,0,0,1311.408,113.377Zm-.407,2.91a11.544,11.544,0,0,0-5.752,3.353,9.352,9.352,0,0,0-2.482,3.367,18.471,18.471,0,0,0-1.065,2.728,16.612,16.612,0,0,0,.1,6,12.858,12.858,0,0,0,9.047,9.087,15.226,15.226,0,0,0,6.256.091,12.686,12.686,0,1,0-6.1-24.628Zm4.464,11.8-4.01,3.988L1310.279,130a10.325,10.325,0,0,0-1.578-2.284,1.46,1.46,0,0,0-1.6.3c-.582.582-.337,1.342,1.411,4.351,1.789,3.084,2.217,3.527,3.083,3.2a69.28,69.28,0,0,0,5.064-4.833c3.988-4.03,4.621-4.746,4.67-5.276a1.2,1.2,0,0,0-1.275-1.362C1319.542,124.1,1319.015,124.557,1315.465,128.086Zm-23.069,21.88c-1.457,2.525-2.7,4.724-2.76,4.886-.1.269.018.273,1.4.049,3.161-.513,4.486-.663,4.9-.552a11.264,11.264,0,0,1,2.248,2.381c1,1.247,1.859,2.268,1.909,2.269s1-1.61,2.12-3.58l2.03-3.581-1.806-.945a22.972,22.972,0,0,1-5.728-4.1,18.425,18.425,0,0,0-1.568-1.414C1295.087,145.375,1293.852,147.441,1292.4,149.966Zm39.063-3.172a22.5,22.5,0,0,1-5.71,4.1l-1.808.946,1.98,3.435c1.089,1.889,2.044,3.5,2.122,3.577a7.546,7.546,0,0,0,1.682-1.776c2.24-2.786,2.246-2.793,3.042-2.789.38,0,1.857.192,3.282.422a12.56,12.56,0,0,0,2.591.282c0-.227-5.479-9.618-5.608-9.613A15.368,15.368,0,0,0,1331.459,146.795Z" transform="translate(-1271.882 -79)" fill="#00b52a" fill-rule="evenodd"/>
</svg>
