<svg xmlns="http://www.w3.org/2000/svg" xmlns:xlink="http://www.w3.org/1999/xlink" width="80" height="78.987" viewBox="0 0 80 78.987">
  <defs>
    <clipPath id="clip-path">
      <rect id="Rectangle_9819" data-name="Rectangle 9819" width="80" height="78.987" fill="#ffdc1a"/>
    </clipPath>
  </defs>
  <g id="Group_14724" data-name="Group 14724" clip-path="url(#clip-path)">
    <path id="Path_22932" data-name="Path 22932" d="M37.191.254A26.589,26.589,0,0,0,25.909,4.318,25.434,25.434,0,0,0,15.03,30.474a26.589,26.589,0,0,0,3.762,8.965A25.317,25.317,0,0,0,53.764,46.55,25.751,25.751,0,0,0,64.646,30.458,25.363,25.363,0,0,0,42.8.306,38.007,38.007,0,0,0,37.191.254ZM31.2,15.411a2.011,2.011,0,0,0-1.3,1.078,2.236,2.236,0,0,0,1.745,3.372,2.315,2.315,0,0,0,2.132-3.484A2.373,2.373,0,0,0,31.2,15.411Zm15.91.051a2.026,2.026,0,0,0-1.516,2.161,2.264,2.264,0,1,0,1.516-2.161ZM27.488,29.1a2.262,2.262,0,0,0-1.527,2.244c0,1.637,1.844,4.893,3.792,6.7a14.617,14.617,0,0,0,20.46-.354c2.426-2.426,4.018-6,3.3-7.394a2.25,2.25,0,0,0-1.423-1.207c-1.328-.358-2.344.336-3,2.047a10.059,10.059,0,0,1-6.375,5.928,10.921,10.921,0,0,1-5.758,0A10,10,0,0,1,30.625,31.3c-.457-1.3-.747-1.712-1.455-2.054A1.866,1.866,0,0,0,27.488,29.1ZM10.782,57.947c-.432.193-.692.608-1.909,3.038C7.649,63.431,7.4,63.829,6.961,64.02a20.23,20.23,0,0,1-2.915.554c-1.327.184-2.638.4-2.915.487A1.577,1.577,0,0,0,0,66.649c0,.612.086.722,2.261,2.888A20.536,20.536,0,0,1,4.6,72.113a22.38,22.38,0,0,1-.394,3.145c-.261,1.551-.475,2.974-.475,3.162a1.757,1.757,0,0,0,.529.871c.806.806,1.134.737,4.249-.888,2.183-1.139,2.8-1.4,3.165-1.328a26.02,26.02,0,0,1,2.949,1.417c2.621,1.392,3.192,1.551,3.872,1.074a2.048,2.048,0,0,0,.575-.763c.189-.453.162-.795-.25-3.131-.706-4-.861-3.477,1.79-6.085a18.016,18.016,0,0,0,2.35-2.6,1.96,1.96,0,0,0-.636-1.735,19.193,19.193,0,0,0-3.348-.686c-2.2-.33-3.068-.522-3.3-.73a21.71,21.71,0,0,1-1.6-2.849A22.224,22.224,0,0,0,12.5,58.153,1.63,1.63,0,0,0,10.782,57.947Zm28.3.041c-.454.224-.691.6-1.813,2.915a21.7,21.7,0,0,1-1.611,2.948c-.242.219-1.041.4-3.267.724a26.879,26.879,0,0,0-3.272.608,1.979,1.979,0,0,0-.8,1.41c0,.626.468,1.218,2.391,3.024a15.216,15.216,0,0,1,2.134,2.3c.171.413.129.886-.3,3.459-.375,2.221-.464,3.083-.35,3.383a1.791,1.791,0,0,0,1.461,1.066,15.9,15.9,0,0,0,3.184-1.4,24.147,24.147,0,0,1,3.008-1.4,24.029,24.029,0,0,1,3,1.4,15.828,15.828,0,0,0,3.177,1.4,1.792,1.792,0,0,0,1.46-1.066c.115-.3.025-1.155-.353-3.376-.441-2.588-.48-3.035-.305-3.458a15.1,15.1,0,0,1,2.137-2.3c2.482-2.33,2.747-2.827,2.086-3.91-.379-.622-.741-.729-4.105-1.207a9.383,9.383,0,0,1-2.906-.632,24.06,24.06,0,0,1-1.607-2.944c-1.171-2.382-1.382-2.715-1.863-2.943A1.266,1.266,0,0,0,39.08,57.988Zm28.611-.154c-.531.2-.875.713-2.1,3.157a21.314,21.314,0,0,1-1.61,2.859c-.244.22-1.043.4-3.269.725a26.879,26.879,0,0,0-3.272.608,1.978,1.978,0,0,0-.8,1.412c0,.57.3.943,2.516,3.1,2.54,2.479,2.4,1.97,1.69,5.974-.412,2.336-.439,2.677-.25,3.131a2.047,2.047,0,0,0,.575.763c.686.481,1.264.321,3.9-1.077a26.54,26.54,0,0,1,2.94-1.417c.342-.068,1.012.214,3.151,1.331,3.115,1.625,3.444,1.694,4.249.888a1.757,1.757,0,0,0,.529-.871c0-.188-.214-1.611-.475-3.162a22.38,22.38,0,0,1-.394-3.145,20.536,20.536,0,0,1,2.343-2.576c2.175-2.166,2.261-2.275,2.261-2.888a1.592,1.592,0,0,0-1.131-1.594c-.277-.088-1.589-.307-2.915-.486a19.9,19.9,0,0,1-2.915-.548c-.437-.192-.689-.593-1.912-3.037-1.266-2.529-1.464-2.838-1.943-3.038A1.327,1.327,0,0,0,67.691,57.834Z" transform="translate(-0.039 -0.282)" fill="#ffdc1a" fill-rule="evenodd"/>
  </g>
</svg>
