<svg xmlns="http://www.w3.org/2000/svg" width="80" height="78.917" viewBox="0 0 80 78.917">
  <path id="Path_22942" data-name="Path 22942" d="M22.867,19.2a8.089,8.089,0,0,0-.2,2.75V24.5h11V21.851c0-2.262-.039-2.664-.264-2.75-.145-.056-2.53-.1-5.3-.1C24.408,19,23.013,19.053,22.867,19.2Zm-.2,23.961c0,15.972.007,16.331.322,16.5a37.027,37.027,0,0,0,5.178.173,37.027,37.027,0,0,0,5.178-.173c.315-.169.322-.528.322-16.5V26.833h-11Zm21.092-6.407c-5.361,1.466-7.554,2.135-7.712,2.351-.179.245-.212,2.213-.175,10.335.025,5.518.108,10.1.184,10.171s3.7.139,8.048.139c6.849,0,7.93-.033,8.067-.25.226-.357.217-24.089-.009-24.511a.619.619,0,0,0-.542-.3C51.416,34.7,47.879,35.627,43.759,36.754ZM62.4,36.738c-4.136,1.127-7.605,2.1-7.708,2.166-.136.084-.188,2.937-.188,10.351,0,9.948.009,10.239.322,10.407a76.959,76.959,0,0,0,7.844.173,76.959,76.959,0,0,0,7.844-.173c.314-.168.322-.481.322-12.383,0-12.634,0-12.627-.658-12.6C70.033,34.683,66.533,35.611,62.4,36.738Zm18.489.007c-4.143,1.131-7.612,2.106-7.708,2.166-.121.075-.176,3.328-.176,10.343,0,9.948.009,10.239.322,10.407.5.268,15.363.235,15.731-.036.263-.193.28-1.095.24-12.542L89.25,34.75l-.417-.031C88.6,34.7,85.027,35.613,80.885,36.745Zm-39.809,6.8a30.436,30.436,0,0,0-.038,3.045l.046,2.827h6v-6l-2.962-.046C41.8,43.335,41.141,43.373,41.075,43.544Zm18.536-.1a20.418,20.418,0,0,0-.111,2.9c0,2.167.051,2.828.23,2.976a10.2,10.2,0,0,0,3.042.146l2.811-.046.046-3.042.045-3.042H62.7A23.086,23.086,0,0,0,59.611,43.444ZM78.2,46.371l.046,3.046,2.851.045c2.287.037,2.89,0,3.046-.189a9.9,9.9,0,0,0,.149-3.046l-.046-2.811L81.2,43.371l-3.045-.045ZM16.362,62.386c-.33.352-.362.562-.362,2.388,0,1.877.024,2.024.386,2.364l.386.362h78.5l.363-.386c.33-.352.362-.562.362-2.388,0-1.877-.024-2.025-.386-2.364L95.229,62h-78.5ZM30.6,72.429c-.2.2-.262.613-.262,1.679,0,1.331.029,1.446.467,1.885a2.117,2.117,0,0,0,1.542.586,5.71,5.71,0,0,1,4.793,3.392,4.3,4.3,0,0,1,.43,2.279,4.767,4.767,0,0,1-1.191,3.434,2.566,2.566,0,0,0-.874,1.834c0,.469.295.837,2.277,2.837a13.941,13.941,0,0,0,2.721,2.4A2.334,2.334,0,0,0,42.448,92a4.767,4.767,0,0,1,3.3-1.29,5.126,5.126,0,0,1,4.067,1.4,5.659,5.659,0,0,1,1.837,3.717c.123.983.243,1.321.588,1.666l.433.433h6.652l.433-.433c.345-.345.464-.683.588-1.666A5.7,5.7,0,0,1,62.1,92.17,5.265,5.265,0,0,1,65.583,90.7c1.745-.112,2.716.25,4.465,1.662a1.75,1.75,0,0,0,1.133.376c.638,0,.774-.107,2.993-2.341,2.108-2.123,2.325-2.4,2.325-2.93a2.079,2.079,0,0,0-.415-1.155c-1.508-2.059-1.879-3.1-1.677-4.723a5.753,5.753,0,0,1,5.25-5.015,2.117,2.117,0,0,0,1.542-.586c.438-.438.467-.554.467-1.885,0-1.066-.065-1.482-.262-1.679-.229-.229-1.035-.262-6.322-.262-6.828,0-6.485-.067-6.673,1.294a12.634,12.634,0,0,1-4.765,8.618,12.5,12.5,0,0,1-18.8-4.315,13.42,13.42,0,0,1-1.253-4.3c-.188-1.36.156-1.294-6.673-1.294C31.63,72.167,30.824,72.2,30.6,72.429Zm18.824.068c-.235.26-.277.492-.195,1.088a7.033,7.033,0,0,0,3.9,4.963A4.861,4.861,0,0,0,56,79.083a4.861,4.861,0,0,0,2.879-.535,7.033,7.033,0,0,0,3.9-4.963c.082-.6.04-.828-.195-1.088-.288-.318-.53-.33-6.581-.33S49.707,72.179,49.419,72.5Z" transform="translate(-16 -19)" fill="#d0276e" fill-rule="evenodd"/>
</svg>
