<svg xmlns="http://www.w3.org/2000/svg" width="80" height="80.166" viewBox="0 0 80 80.166">
  <path id="Path_22933" data-name="Path 22933" d="M766.162,24.4a8.889,8.889,0,0,0-5.256,4.94l-.406,1.006V67.491l.406,1.006a8.813,8.813,0,0,0,5.316,4.948c1.13.349,1.426.352,34.278.352s33.149,0,34.279-.352a8.815,8.815,0,0,0,5.315-4.948l.406-1.006V30.341l-.406-1.006a8.815,8.815,0,0,0-5.315-4.948c-1.132-.349-1.413-.352-34.34-.342C767.878,24.054,767.218,24.061,766.162,24.4Zm2.4,2.668a6.782,6.782,0,0,0-5.213,5.611c-.128.768-.171,6.119-.135,16.933.049,14.527.078,15.882.356,16.7a7.5,7.5,0,0,0,4.419,4.334c.914.283,2.979.3,32.509.3s31.6-.019,32.51-.3a7.336,7.336,0,0,0,4.423-4.424c.278-.9.3-2.248.3-17.3s-.024-16.4-.3-17.3a7.5,7.5,0,0,0-4.333-4.421c-.84-.286-2.782-.307-32.168-.336C774.866,26.829,769.475,26.864,768.563,27.063Zm-.345,2.951a4.5,4.5,0,0,0-1.324,1c-.889,1.166-.951,1.537-.951,5.712v3.893h17.066l.74-1.253a19.89,19.89,0,0,1,8.768-8.02,21.425,21.425,0,0,1,5.862-1.6c.8-.084-4.847-.151-13.957-.165l-15.3-.023Zm34.478-.261A19.454,19.454,0,0,1,817.86,40.536a17.863,17.863,0,0,1,1.866,8.38,18.383,18.383,0,0,1-5.229,13.2,18.978,18.978,0,0,1-11.8,5.966c-.741.087,4.981.138,14.146.124l15.392-.022.845-.523a4.445,4.445,0,0,0,1.368-1.369l.523-.846V32.388l-.523-.846a4.445,4.445,0,0,0-1.368-1.369l-.845-.523-15.392-.022C807.678,29.615,801.955,29.665,802.7,29.752Zm-5.37,2.834a16.593,16.593,0,0,0-11.874,9.3l-.719,1.5H765.943V54.445h18.791l.719,1.5a16.343,16.343,0,0,0,8.014,8.014c2.475,1.183,3.746,1.44,7.12,1.437,2.7,0,3.062-.04,4.482-.474a17.06,17.06,0,0,0,11.439-11.437c.437-1.432.472-1.765.472-4.568s-.035-3.136-.472-4.568A17.027,17.027,0,0,0,805.068,32.92a12.486,12.486,0,0,0-4.05-.521A17.459,17.459,0,0,0,797.326,32.586ZM827.337,33.9a2.959,2.959,0,0,0-1.785,1.892,2.677,2.677,0,1,0,3.321-1.9A1.956,1.956,0,0,0,827.337,33.9Zm-28.645,2.756A12.887,12.887,0,0,0,790.9,41.1a15.557,15.557,0,0,0-2.442,4.88,15.08,15.08,0,0,0,0,5.875,16.019,16.019,0,0,0,.973,2.505,11.616,11.616,0,0,0,5.622,5.622,12.361,12.361,0,0,0,10.885,0,12.146,12.146,0,0,0,6.5-7.876,13.823,13.823,0,0,0,.1-6.126,13.4,13.4,0,0,0-4.221-6.658,15.534,15.534,0,0,0-4.752-2.4A15.078,15.078,0,0,0,798.692,36.658Zm-.065,8.555a4,4,0,0,0-2.24,4.054,4.041,4.041,0,0,0,1.944,3.187,4.759,4.759,0,0,0,4.337,0,4.443,4.443,0,0,0,1.368-1.369,3.1,3.1,0,0,0,.523-2.169,3.1,3.1,0,0,0-.523-2.169A4.16,4.16,0,0,0,798.627,45.213Zm28.711-.253a2.959,2.959,0,0,0-1.785,1.892,2.677,2.677,0,1,0,3.321-1.9A1.956,1.956,0,0,0,827.337,44.96Zm-61.36,16.368.052,4.118.523.845a4.472,4.472,0,0,0,1.369,1.368l.846.523,15.478.022c8.782.012,14.911-.039,14.166-.119a19.676,19.676,0,0,1-14.662-9.622l-.74-1.253H765.925ZM789.444,77.3a11.064,11.064,0,0,0,1.165,4.276,9.507,9.507,0,0,0,2.109,2.771,10.891,10.891,0,0,0,15.564,0,9.5,9.5,0,0,0,2.108-2.771,11.052,11.052,0,0,0,1.165-4.276l0-.734H789.442Zm-3.717-.012a3.831,3.831,0,0,0-1.333,1.5l-.482.927v16.2h33.175v-16.2l-.482-.927a3.832,3.832,0,0,0-1.323-1.495c-.962-.648-1.125-.564-1.128.583a11.45,11.45,0,0,1-.352,2.073,13.758,13.758,0,0,1-25.748,2.443,15.455,15.455,0,0,1-1.215-4.43,3.461,3.461,0,0,0-.136-.934C786.589,76.739,786.5,76.761,785.727,77.285Zm7.862,3.424v1.382h2.765V79.326h-2.765Zm5.529,0v1.382h2.765V79.326h-2.765Zm5.529,0v1.382h2.765V79.326h-2.765ZM780.663,99.126a4.055,4.055,0,0,0-2.28,3.953v1.129h44.27l-.06-1.353a3.964,3.964,0,0,0-1.954-3.567l-.845-.523-19.112-.045-19.111-.045Z" transform="translate(-760.5 -24.042)" fill="#0000a8" fill-rule="evenodd"/>
</svg>
